Coordinates
version=1
nRows=15
nColumns=34
inDegrees=yes

Units are S.I. units (second, meters, Newtons, ...)
Angles are in degrees.

endheader
time	pelvis_tilt	pelvis_list	pelvis_rotation	pelvis_tx	pelvis_ty	pelvis_tz	hip_flexion_r	hip_adduction_r	hip_rotation_r	knee_angle_r	ankle_angle_r	subtalar_angle_r	mtp_angle_r	hip_flexion_l	hip_adduction_l	hip_rotation_l	knee_angle_l	socket_flexion	socket_adduction	socket_rotation	socket_tx	socket_ty	socket_tz	pros_ankle_rx	pros_ankle_ry	pros_ankle_rz	pros_ankle_tx	pros_ankle_ty	pros_ankle_tz	foot_flex	lumbar_extension	lumbar_bending	lumbar_rotation
      0.89166667	      1.83326882	     -7.51905923	      1.63566276	      0.44491561	      1.04810702	      0.40965560	      8.00303577	     11.08313227	     -4.60444948	    -18.29586284	      7.93625010	      6.88931908	     11.65649741	     10.99715806	    -14.46350323	     -4.20339168	    -63.27691515	      0.00000000	      0.00000000	      0.00000000	      0.00000000	     -0.03552525	      0.00000000	      0.00000000	      0.00000000	      0.00000000	      0.00000000	      0.00000000	      0.00000000	     -1.15804822	    -11.85320338	      1.32074134	    -17.92374176
      0.89583333	      1.78317103	     -7.32626322	      1.63427166	      0.45000405	      1.04927725	      0.40935042	      7.56599652	     10.86275286	     -4.60684603	    -17.98825722	      7.92385464	      7.07158995	     11.72171438	     11.63251434	    -14.09603710	     -3.97240956	    -62.90525695	      0.00000000	      0.00000000	      0.00000000	      0.00000000	     -0.03484845	      0.00000000	      0.00000000	      0.00000000	      0.00000000	      0.00000000	      0.00000000	      0.00000000	     -1.18168640	    -11.79931097	      1.11066046	    -17.93420740
      0.90000000	      1.65512370	     -7.11586387	      1.78245110	      0.45521282	      1.05023531	      0.40866613	      7.30218402	     10.50019265	     -5.19267314	    -17.82899495	      7.93748730	      7.90147164	     12.52429847	     12.40827185	    -13.64501155	     -3.55321023	    -62.53476946	      0.00000000	      0.00000000	      0.00000000	      0.00000000	     -0.03407662	      0.00000000	      0.00000000	      0.00000000	      0.00000000	      0.00000000	      0.00000000	      0.00000000	     -1.20336766	    -11.63937822	      0.90739245	    -18.31241114
      0.90416667	      1.61543891	     -6.95457899	      1.72195832	      0.46025445	      1.05139244	      0.40842831	      6.85346659	     10.32684669	     -5.11589278	    -17.51989656	      7.92811491	      8.00842612	     12.56556336	     12.97578046	    -13.32430553	     -3.40215150	    -62.06304822	      0.00000000	      0.00000000	      0.00000000	      0.00000000	     -0.03338349	      0.00000000	      0.00000000	      0.00000000	      0.00000000	      0.00000000	      0.00000000	      0.00000000	     -1.19988864	    -11.62123380	      0.72166919	    -18.23387565
      0.90833333	      1.57167252	     -6.79011866	      1.68000620	      0.46531144	      1.05253161	      0.40816905	      6.40729146	     10.13756670	     -5.11148156	    -17.19159477	      7.83069071	      8.14631162	     12.62403788	     13.53581954	    -12.99581674	     -3.23857524	    -61.54150386	      0.00000000	      0.00000000	      0.00000000	      0.00000000	     -0.03265842	      0.00000000	      0.00000000	      0.00000000	      0.00000000	      0.00000000	      0.00000000	      0.00000000	     -1.21282386	    -11.55885591	      0.49621048	    -18.18726304
      0.91250000	      1.49686736	     -6.69543440	      1.56841549	      0.47025933	      1.05352620	      0.40799311	      6.07557504	     10.01870360	     -5.09500632	    -17.01866144	      7.83809429	      8.21083958	     12.64434766	     14.07880649	    -12.76791099	     -3.15097633	    -60.96487213	      0.00000000	      0.00000000	      0.00000000	      0.00000000	     -0.03217378	      0.00000000	      0.00000000	      0.00000000	      0.00000000	      0.00000000	      0.00000000	      0.00000000	     -1.15806778	    -11.64539815	      0.46248400	    -18.16338012
      0.91666667	      1.44719974	     -6.48877749	      1.58975444	      0.47538709	      1.05469767	      0.40760590	      5.56223657	      9.78945000	     -5.05475854	    -16.55883869	      7.71995504	      8.42033542	     12.70088401	     14.64376107	    -12.37268535	     -2.94263780	    -60.37220905	      0.00000000	      0.00000000	      0.00000000	      0.00000000	     -0.03122220	      0.00000000	      0.00000000	      0.00000000	      0.00000000	      0.00000000	      0.00000000	      0.00000000	     -1.26106966	    -11.46256146	      0.16686074	    -18.11615723
      0.92083333	      1.37506551	     -6.41554323	      1.47938381	      0.48029560	      1.05563559	      0.40743889	      5.24546938	      9.68601935	     -5.06884114	    -16.40329211	      7.69024253	      8.49651553	     12.72597347	     15.16666220	    -12.17579709	     -2.85909599	    -59.72635207	      0.00000000	      0.00000000	      0.00000000	      0.00000000	     -0.03063747	      0.00000000	      0.00000000	      0.00000000	      0.00000000	      0.00000000	      0.00000000	      0.00000000	     -1.18160339	    -11.53510668	      0.11651487	    -18.10329976
      0.92500000	      1.28572156	     -6.30830221	      1.39520774	      0.48523599	      1.05659230	      0.40716755	      4.89114369	      9.55163769	     -5.05071303	    -16.13822823	      7.65294511	      8.61080838	     12.75264661	     15.69426463	    -11.91416849	     -2.73429523	    -59.02308343	      0.00000000	      0.00000000	      0.00000000	      0.00000000	     -0.02996501	      0.00000000	      0.00000000	      0.00000000	      0.00000000	      0.00000000	      0.00000000	      0.00000000	     -1.16358221	    -11.54445680	      0.01837027	    -18.07502229
      0.92916667	      1.23738169	     -6.10722842	      1.41040234	      0.49057013	      1.05774002	      0.40684846	      4.34193542	      9.31912494	     -5.08584834	    -15.61003710	      7.38620751	      8.92556117	     12.84681801	     16.15668544	    -11.54828881	     -2.58751263	    -58.25738042	      0.00000000	      0.00000000	      0.00000000	      0.00000000	     -0.02902798	      0.00000000	      0.00000000	      0.00000000	      0.00000000	      0.00000000	      0.00000000	      0.00000000	     -1.28605156	    -11.21735404	     -0.31484740	    -18.05320920
      0.93333333	      1.20224936	     -5.99172880	      1.35319607	      0.49568097	      1.05875835	      0.40655345	      3.90740474	      9.13963695	     -5.26937692	    -15.28831058	      7.09237803	      9.36838478	     13.20370332	     16.55675441	    -11.28862420	     -2.48671835	    -57.42268151	      0.00000000	      0.00000000	      0.00000000	      0.00000000	     -0.02838945	      0.00000000	      0.00000000	      0.00000000	      0.00000000	      0.00000000	      0.00000000	      0.00000000	     -1.27749866	    -11.16506834	     -0.45320256	    -18.11046146
      0.93750000	      1.12981928	     -5.96103037	      1.24672606	      0.50039794	      1.05955023	      0.40634395	      3.63201305	      9.08141874	     -5.26588746	    -15.19289327	      7.11647238	      9.42178918	     13.23890784	     17.05528815	    -11.14368215	     -2.40353716	    -56.67057250	      0.00000000	      0.00000000	      0.00000000	      0.00000000	     -0.02765410	      0.00000000	      0.00000000	      0.00000000	      0.00000000	      0.00000000	      0.00000000	      0.00000000	     -1.17572514	    -11.27145078	     -0.46752189	    -18.08873113
      0.94166667	      1.07313574	     -5.79804589	      1.17951686	      0.50579307	      1.06060553	      0.40615535	      3.10766798	      8.87920187	     -5.32603552	    -14.68298083	      6.83080164	      9.83838358	     13.54516425	     17.38597539	    -10.85473422	     -2.37187745	    -55.69431962	      0.00000000	      0.00000000	      0.00000000	      0.00000000	     -0.02697286	      0.00000000	      0.00000000	      0.00000000	      0.00000000	      0.00000000	      0.00000000	      0.00000000	     -1.26703766	    -11.00343515	     -0.69947377	    -18.03832793
      0.94583333	      0.98853572	     -5.72309845	      1.09728085	      0.51076929	      1.06144847	      0.40589643	      2.73944706	      8.77254695	     -5.31900116	    -14.40496486	      6.80222427	     10.00224932	     13.68124856	     17.80480453	    -10.65005367	     -2.27690963	    -54.77161462	      0.00000000	      0.00000000	      0.00000000	      0.00000000	     -0.02628687	      0.00000000	      0.00000000	      0.00000000	      0.00000000	      0.00000000	      0.00000000	      0.00000000	     -1.29386134	    -10.94361304	     -0.78370968	    -17.99214756
      0.95000000	      0.93439299	     -5.64953993	      0.97270094	      0.51589702	      1.06232542	      0.40575750	      2.32234796	      8.66004160	     -5.35234496	    -14.07880737	      6.54780702	     10.31937039	     13.97802985	     18.12109271	    -10.48285167	     -2.27371830	    -53.77116778	      0.00000000	      0.00000000	      0.00000000	      0.00000000	     -0.02560989	      0.00000000	      0.00000000	      0.00000000	      0.00000000	      0.00000000	      0.00000000	      0.00000000	     -1.23649975	    -10.82031969	     -0.92334388	    -17.92724369
